<?xml version="1.0" encoding="utf-8"?>
<svg version="1.1" id="Layer_1"
	xmlns="http://www.w3.org/2000/svg"
	xmlns:xlink="http://www.w3.org/1999/xlink" x="0px" y="0px" width="32" height="32" viewBox="0 0 32 32" style="enable-background:new 0 0 32 32;" xml:space="preserve">
	<g id="nereKU_00000168832170040920635400000012944209082258865286_">
		<g>
			<path d="M3.2,15.5c0.1-0.5,0.1-0.9,0.2-1.4c0.3-1.8,1-3.5,2-5c1.6-2.3,3.7-3.9,6.3-4.8c1.8-0.6,3.6-0.8,5.5-0.6
			c2.3,0.2,4.4,1,6.3,2.4c2.3,1.7,3.8,3.9,4.6,6.7c0.5,1.8,0.6,3.5,0.4,5.3c-0.5,3.6-2.3,6.4-5.1,8.5c-1,0.8-2.2,1.3-3.4,1.8
			c-0.6,0.2-0.9-0.1-0.9-0.7c0-1.1,0-2.2,0-3.3c0-0.5,0-1.1-0.3-1.6c-0.1-0.3-0.3-0.6-0.5-0.8c0.5-0.1,1-0.2,1.5-0.3
			c1.3-0.3,2.5-0.9,3.2-2.1c0.6-0.8,0.8-1.8,1-2.8c0.1-0.8,0.1-1.5,0-2.3c-0.2-0.8-0.5-1.6-1.1-2.2c-0.1-0.1-0.1-0.2-0.1-0.4
			c0.4-1,0.2-2.1-0.2-3.1c0-0.1-0.1-0.1-0.2-0.1c-0.4-0.1-0.9,0.1-1.3,0.2c-0.6,0.3-1.3,0.7-1.9,1c-0.1,0.1-0.3,0.1-0.4,0.1
			c-2-0.5-4-0.5-6,0c-0.1,0-0.3,0-0.4-0.1C11.8,9.5,11,9.1,10,8.9c0,0,0,0,0,0C9.4,8.7,9.3,8.8,9.1,9.4c-0.3,0.9-0.3,1.8,0,2.7
			c0,0.1,0,0.2,0,0.3C8,13.6,7.8,15,7.9,16.5c0.1,0.9,0.3,1.8,0.7,2.6c0.6,1.2,1.5,1.9,2.7,2.3c0.7,0.2,1.4,0.3,2.2,0.5
			c0,0,0.1,0,0.1,0c-0.2,0.3-0.4,0.7-0.6,1c-0.1,0.1-0.1,0.3-0.1,0.4c0,0.3-0.2,0.4-0.4,0.5c-0.8,0.2-1.6,0.4-2.4-0.1
			c-0.4-0.2-0.7-0.6-0.9-1c-0.4-0.6-0.9-1.1-1.6-1.3c-0.3-0.1-0.6-0.1-0.8,0c-0.2,0-0.2,0.1-0.1,0.3c0.1,0.1,0.2,0.3,0.4,0.4
			c0.7,0.4,1.1,1,1.4,1.7c0.2,0.4,0.3,0.8,0.7,1.1c0.5,0.5,1.2,0.7,1.9,0.7c0.6,0,1.2,0,1.8,0c0,0.4,0,0.8,0,1.2c0,0.3,0,0.6,0,1
			c0,0.6-0.4,0.9-1,0.7C10,27.7,8.3,26.7,7,25.3c-1.3-1.4-2.4-3-3-4.8c-0.4-1-0.6-2.1-0.7-3.2c0-0.1,0-0.2,0-0.3
			C3.2,16.5,3.2,16,3.2,15.5z" fill="#fff"/>
		</g>
	</g>
</svg>
