<?xml version="1.0" encoding="utf-8"?>
<!-- Generator: Adobe Illustrator 25.4.1, SVG Export Plug-In . SVG Version: 6.00 Build 0)  -->
<svg version="1.1" id="Layer_1" xmlns="http://www.w3.org/2000/svg" xmlns:xlink="http://www.w3.org/1999/xlink" x="0px" y="0px"
	 viewBox="0 0 2502.2 812" style="enable-background:new 0 0 2502.2 812;" xml:space="preserve">
<style type="text/css">
	.st0{opacity:8.000000e-02;fill:url(#SVGID_1_);}
</style>
<radialGradient id="SVGID_1_" cx="-746.5588" cy="824.0057" r="1621.8722" gradientTransform="matrix(0.5336 9.710997e-02 -0.1791 0.9838 1794.0306 -242.9152)" gradientUnits="userSpaceOnUse">
	<stop  offset="8.148150e-02" style="stop-color:#FF23C9"/>
	<stop  offset="1" style="stop-color:#E014BD"/>
</radialGradient>
<path class="st0" d="M2420,320.2c-118.2-42.1-349.5,63.1-374.5,168.5c-24.9,105.5-82.9,190.6-198.1,192.4s-146.7-23.5-251.1-121.6
	c-86.1-80.9-270.2-92.2-332.1-93.7l-20.4,0.9c-60.9,7.1-240,34.9-304.7,122.7c-78.5,106.5-103.2,134.3-217.6,143
	c-114.4,8.7-193.1-70.3-244.4-172.3c-51.3-102-306.5-185-412.7-132.7c-106.2,52.3-49.2,132.9-49.2,132.9s190.6-63.6,303-12.3
	c112.4,51.4,87.4,159.2,255,212.1c4.5,1.4,9,2.8,13.6,4.1c-21.4-12.3-32.6-26.3-31.5-35.7c2.4-22.3,35.8-2.3,35.8-2.3
	s116.5,49,196.1,18c79.6-30.9,138.5-98.4,155-65.1c16.5,33.3-103.4,99.8-213,110.1c-2.3,0.2-4.5,0.4-6.7,0.5
	c107.7,7.6,202.5-19.2,269.5-86.9c96.5-97.6,460.9-114.1,581-26.4c83.2,60.8,183.7,78.7,288.3,61.5c-2.3,0-4.5,0.1-6.8,0.1
	c-111-0.3-246.2-55.1-238.3-89.5c7.9-34.4,83.1,27,169.6,50.4c86.5,23.4,189.3-35.6,189.3-35.6s27.9-22.7,36-1
	c3.4,9.1-4.2,24-22.2,38.1c4.1-1.7,8.2-3.5,12.4-5.3c152.3-67.5,100.4-171.8,198.6-232.8c98.2-60.9,302.6-15.3,302.6-15.3
	S2538.2,362.3,2420,320.2z M274.4,495.9c-94-13.3-261.5,5.4-152.1-65.5c0,0,204.8-11.9,289,90.4
	C495.7,623.2,368.5,509.3,274.4,495.9z M452.1,648.1c-8.7,2.8-25-10.7-36.5-30c-11.5-19.4-13.8-37.3-5.1-40.1
	c8.7-2.8,25,10.7,36.5,30C458.4,627.3,460.7,645.3,452.1,648.1z M1091,622.2c-47.8,12.5-75.2,2.2-42.4-16.9
	c32.8-19.1,56.8-6.3,56.8-6.3S1138.8,609.7,1091,622.2z M1287.1,566.8c-111.3-2.3-328.2,38.7-247.7-16.2
	c59.5-40.5,160.1-54.9,216.9-60c57-0.2,161.3,4.7,231,39.6C1580.8,577.2,1396.6,554.5,1287.1,566.8z M1490.6,612.3
	c-33.5-8-4.6-23.5-4.6-23.5s22.3-16.6,42.3,0.3C1548.3,606,1524.1,620.4,1490.6,612.3z M2121,540.4c-6.5,20.2-19.2,34.9-28.5,33
	c-9.3-2-11.6-19.9-5.1-40.1c6.5-20.2,19.2-34.9,28.5-33C2125.2,502.3,2127.5,520.2,2121,540.4z M2229.8,406.9
	c-89.6,21.7-186.6,145.9-129.1,37c57.5-108.8,262.9-115.6,262.9-115.6C2489.6,388.6,2319.4,385.2,2229.8,406.9z"/>
</svg>
