<?xml version="1.0" encoding="utf-8"?>
<svg version="1.1" id="Layer_1" xmlns="http://www.w3.org/2000/svg" xmlns:xlink="http://www.w3.org/1999/xlink" x="0px" y="0px"
	 width="48" height="48" viewBox="0 0 48 48" style="enable-background:new 0 0 48 48;" xml:space="preserve">
<g>
	<path d="M22.7,4.7c-0.1,0-0.3,0-0.6,0.1c-5.5,0.5-10.6,3.5-13.9,8c-1.8,2.5-3,5.4-3.4,8.4c-0.2,1.1-0.2,1.4-0.2,2.8s0,1.8,0.2,2.8
		c1,7.3,6.2,13.3,13.2,15.6c1.3,0.4,2.6,0.7,4.1,0.8c0.6,0.1,3.1,0.1,3.7,0c2.6-0.3,4.8-0.9,7-2c0.3-0.2,0.4-0.2,0.4-0.3
		c0,0-1.4-1.9-3.1-4.2l-3.1-4.2l-3.9-5.7c-2.1-3.1-3.9-5.7-3.9-5.7c0,0,0,2.5,0,5.6c0,5.4,0,5.7-0.1,5.8c-0.1,0.2-0.2,0.3-0.3,0.3
		C18.6,33,18.5,33,17.9,33h-0.7l-0.2-0.1c-0.1-0.1-0.2-0.2-0.3-0.3l-0.1-0.2l0-7.6l0-7.6l0.1-0.1c0.1-0.1,0.2-0.2,0.3-0.2
		c0.2-0.1,0.2-0.1,0.9-0.1c0.8,0,0.9,0,1.1,0.2c0.1,0.1,2.2,3.2,4.7,7s5.9,9,7.6,11.5l3.1,4.6l0.2-0.1c1.4-0.9,2.8-2.2,4-3.5
		c2.4-2.8,4-6.2,4.5-9.9c0.2-1.1,0.2-1.4,0.2-2.8s0-1.8-0.2-2.8c-1-7.3-6.2-13.3-13.2-15.6c-1.2-0.4-2.5-0.7-4-0.8
		C25.5,4.7,23,4.7,22.7,4.7L22.7,4.7z M30.6,16.4c0.2,0.1,0.3,0.3,0.4,0.4c0,0.1,0,2.2,0,6.9l0,6.8l-1.2-1.8l-1.2-1.8v-4.9
		c0-3.2,0-5,0-5.1c0.1-0.2,0.2-0.4,0.4-0.5c0.2-0.1,0.2-0.1,0.8-0.1C30.4,16.3,30.5,16.3,30.6,16.4z"/>
</g>
</svg>
