<?xml version="1.0" encoding="utf-8"?>
<svg version="1.1" id="Layer_1" xmlns="http://www.w3.org/2000/svg" xmlns:xlink="http://www.w3.org/1999/xlink" x="0px" y="0px"
	 width="48" height="48" viewBox="0 0 48 48" style="enable-background:new 0 0 48 48;" xml:space="preserve">
<g>
	<circle cx="24" cy="24" r="3.4"/>
	<path d="M40.9,20.6c-1.2-1-2.8-1.8-4.7-2.5c-0.4-0.1-0.8-0.3-1.2-0.4c0.1-0.3,0.1-0.6,0.2-0.8c0.4-2.1,0.5-4.1,0.3-5.7
		c-0.3-1.7-1-2.9-2-3.5c-1-0.6-2.3-0.6-3.9,0c-1.4,0.5-3,1.5-4.5,2.9c-0.3,0.3-0.6,0.6-0.9,0.9c-0.2-0.2-0.4-0.4-0.6-0.6
		c-1.6-1.5-3.3-2.5-4.8-3.1c-1.6-0.6-3-0.6-4,0c-1,0.6-1.6,1.7-1.9,3.3c-0.3,1.5-0.2,3.3,0.2,5.4c0.1,0.4,0.2,0.8,0.3,1.2
		c-0.5,0.1-0.9,0.3-1.4,0.4c-1.9,0.7-3.5,1.5-4.7,2.5c-1.2,1-1.9,2.2-1.9,3.3c0,1.2,0.7,2.4,2,3.5c1.2,1,2.9,1.9,4.9,2.6
		c0.3,0.1,0.7,0.2,1,0.3c-0.1,0.5-0.2,0.9-0.3,1.3c-0.4,2-0.4,3.8-0.2,5.3c0.3,1.6,1,2.7,1.9,3.3c0.5,0.3,1.1,0.4,1.8,0.4
		c0.7,0,1.4-0.1,2.2-0.4c1.5-0.5,3.1-1.5,4.7-2.9c0.3-0.2,0.5-0.5,0.8-0.7c0.3,0.3,0.7,0.6,1,0.9c1.5,1.3,3.1,2.3,4.5,2.8
		c0.7,0.3,1.4,0.4,2,0.4c0.7,0,1.3-0.1,1.8-0.4c1-0.6,1.7-1.8,2-3.4c0.3-1.6,0.2-3.5-0.2-5.6c-0.1-0.3-0.1-0.7-0.2-1
		c0.2-0.1,0.5-0.1,0.7-0.2c2.1-0.7,3.8-1.6,5.1-2.6c1.3-1.1,2-2.3,2-3.5C42.8,22.8,42.1,21.7,40.9,20.6z M30,9.2
		c0.6-0.2,1.1-0.3,1.6-0.3c0.4,0,0.7,0.1,0.9,0.2c0.6,0.3,1,1.2,1.2,2.4c0.2,1.4,0.1,3.2-0.3,5.1c-0.1,0.2-0.1,0.5-0.2,0.7
		c-1.6-0.4-3.3-0.6-5-0.8c-0.4-0.6-0.8-1.1-1.2-1.6c-0.7-0.9-1.3-1.6-2-2.4c0.3-0.3,0.6-0.5,0.9-0.8C27.4,10.6,28.8,9.7,30,9.2z
		 M32,26.5c0.4,0.9,0.7,1.8,1,2.6c-1.1,0.2-2.3,0.4-3.5,0.6c0.4-0.6,0.8-1.3,1.2-1.9c0.4-0.7,0.7-1.3,1.1-2
		C31.8,26.1,31.9,26.3,32,26.5z M29.2,27c-0.6,1-1.2,2-1.8,2.9c-1.1,0.1-2.3,0.1-3.4,0.1c-1.2,0-2.3,0-3.4-0.1
		C20,29,19.3,28,18.8,27l0,0c-0.6-1-1.1-2-1.6-3c0.5-1,1-2,1.6-3l0,0c0.6-1,1.2-2,1.8-2.9c1.1-0.1,2.3-0.1,3.4-0.1
		c1.2,0,2.3,0,3.4,0.1C28,19,28.7,20,29.2,21c0.6,1,1.1,2,1.6,3C30.4,25,29.8,26,29.2,27z M24.1,34.3c-0.6-0.6-1.1-1.3-1.7-2
		c-0.2-0.2-0.4-0.5-0.6-0.7c0.7,0,1.5,0,2.2,0c0.8,0,1.5,0,2.3-0.1c-0.1,0.2-0.3,0.4-0.4,0.6C25.2,33,24.6,33.7,24.1,34.3z
		 M16.3,25.9c0.3,0.7,0.7,1.3,1.1,1.9l0,0c0.4,0.7,0.8,1.3,1.2,1.9c-0.3,0-0.5-0.1-0.7-0.1c-1-0.1-1.9-0.3-2.7-0.5
		c0.2-0.8,0.5-1.6,0.9-2.5C16.1,26.5,16.2,26.2,16.3,25.9z M17.4,20.2c-0.4,0.6-0.7,1.3-1.1,1.9c-0.5-1.1-0.9-2.2-1.2-3.3
		c0.8-0.2,1.6-0.3,2.5-0.5c0.3,0,0.6-0.1,0.9-0.1C18.1,18.9,17.7,19.5,17.4,20.2L17.4,20.2z M24,13.7c0.7,0.8,1.5,1.7,2.2,2.7
		c-0.7,0-1.5-0.1-2.2-0.1c-0.7,0-1.5,0-2.2,0.1C22.5,15.4,23.3,14.5,24,13.7z M30.6,20.2c-0.4-0.6-0.8-1.3-1.1-1.9
		c1.2,0.2,2.3,0.4,3.4,0.6c-0.3,1-0.7,2.1-1.2,3.2C31.4,21.5,31,20.8,30.6,20.2z M14.4,16.2c-0.4-1.8-0.4-3.5-0.2-4.8
		c0.2-1.1,0.6-1.9,1.1-2.2c0.6-0.3,1.5-0.3,2.7,0.1c1.3,0.5,2.8,1.5,4.3,2.8c0.2,0.2,0.4,0.3,0.6,0.5c-1.1,1.2-2.2,2.5-3.2,4
		c-0.8,0.1-1.6,0.2-2.3,0.3c-0.9,0.1-1.8,0.3-2.7,0.5C14.6,16.9,14.5,16.5,14.4,16.2z M12.6,28.5c-1.8-0.6-3.3-1.4-4.4-2.3
		c-0.9-0.8-1.4-1.6-1.4-2.2c0-0.6,0.5-1.4,1.3-2.1c1-0.8,2.4-1.6,4.1-2.2c0.4-0.1,0.8-0.3,1.3-0.4c0.5,1.5,1.1,3.1,1.8,4.7
		c-0.3,0.7-0.6,1.4-0.9,2.2c-0.4,0.9-0.7,1.8-0.9,2.7C13.2,28.7,12.9,28.6,12.6,28.5z M18,38.8c-1.1,0.4-2.1,0.4-2.6,0.1
		c-0.5-0.3-1-1.1-1.2-2.2C14,35.4,14,33.8,14.4,32c0.1-0.4,0.2-0.8,0.3-1.3c0.9,0.2,1.9,0.4,2.9,0.5c0.7,0.1,1.4,0.2,2.1,0.2
		c0.5,0.6,0.9,1.3,1.4,1.9c0.6,0.8,1.2,1.5,1.8,2.1c-0.2,0.2-0.5,0.5-0.7,0.7C20.8,37.4,19.3,38.3,18,38.8z M33.6,31.6
		c0.4,1.9,0.4,3.6,0.2,5c-0.2,1.2-0.7,2-1.2,2.3c-0.5,0.3-1.4,0.3-2.5-0.1c-1.2-0.4-2.6-1.3-4-2.5c-0.3-0.3-0.6-0.6-0.9-0.9
		c0.6-0.7,1.3-1.5,1.9-2.3c0.4-0.5,0.8-1.1,1.2-1.7c0.7-0.1,1.3-0.1,1.9-0.2c1.1-0.2,2.2-0.3,3.2-0.6C33.5,31,33.6,31.3,33.6,31.6z
		 M39.7,26.2c-1.1,0.9-2.7,1.7-4.6,2.3c-0.2,0.1-0.4,0.1-0.6,0.2c-0.3-0.9-0.6-1.9-1-2.8c-0.3-0.6-0.6-1.3-0.9-1.9
		c0.3-0.6,0.5-1.2,0.8-1.8c0.4-1,0.8-2,1.1-2.9c0.4,0.1,0.8,0.2,1.1,0.4c1.8,0.6,3.2,1.4,4.2,2.2c0.9,0.7,1.4,1.5,1.4,2.1
		C41.2,24.6,40.7,25.4,39.7,26.2z"/>
</g>
</svg>
