<?xml version="1.0" encoding="utf-8"?>
<svg version="1.1" id="Layer_1" xmlns="http://www.w3.org/2000/svg" xmlns:xlink="http://www.w3.org/1999/xlink" x="0px" y="0px"
	 width="48" height="48" viewBox="0 0 48 48" style="enable-background:new 0 0 48 48;" xml:space="preserve">
<g id="IRZeLC_00000064338407216572291350000018412982886523982740_">
	<g>
		<path d="M30.9,26.4c3.7,0.9,4.9,3.4,5.1,6.7c0.1,2,0.2,3.9,0.3,6c-2.7,0-5.3,0-8.1,0c0-1.7,0-3.4,0-5.1c0-0.8-0.1-1.6-0.3-2.3
			c-0.4-1.3-1.3-2.1-2.7-2.3c-0.5-0.1-1.1-0.1-1.6-0.1c-3.8,0-7.6,0-11.4,0c-0.3,0-0.6,0-0.9,0c0-2.1,0-4.1,0-6.2c0.3,0,0.6,0,0.9,0
			c3.9,0,7.8,0,11.7,0c0.9,0,1.8-0.1,2.6-0.2c1.9-0.4,2.9-1.5,2.9-3.4c0.1-1.9-0.9-3.3-2.7-3.8c-0.8-0.2-1.7-0.3-2.6-0.4
			c-3.9,0-7.8,0-11.8,0c-0.3,0-0.7,0-1,0c0-2,0-4,0-6.1c0.2,0,0.4,0,0.7,0c4.6,0,9.2,0,13.8,0c2.7,0,5.4,0.4,7.8,1.9
			c4.5,2.8,5.1,10.5,1.2,13.7c-0.5,0.4-1.1,0.8-1.6,1.1C32.3,25.9,31.7,26.1,30.9,26.4z"/>
		<path d="M21.1,39.1c-3.4,0-6.7,0-10.1,0c0-1.5,0-3,0-4.5c0.2,0,0.4-0.1,0.7-0.1c2.5,0,4.9,0,7.4,0c1.6,0,2.1,0.5,2.1,2.1
			c0,0.7,0,1.5,0,2.2C21.1,38.8,21.1,38.9,21.1,39.1z"/>
	</g>
</g>
</svg>
